{
  "accessors": [
    {
      "bufferView": 2,
      "componentType": 5126,
      "count": 4314,
      "max": [
        190.0839385986328,
        151.55052185058594,
        601.927490234375
      ],
      "min": [
        -184.4872283935547,
        -174.31259155273438,
        -19.22209358215332
      ],
      "type": "VEC3"
    },
    {
      "bufferView": 2,
      "byteOffset": 51768,
      "componentType": 5126,
      "count": 4314,
      "max": [
        0.9999990463256836,
        0.9999904632568359,
        0.9999760389328003
      ],
      "min": [
        -0.9999972581863403,
        -0.9999996423721313,
        -0.9999964237213135
      ],
      "type": "VEC3"
    },
    {
      "bufferView": 1,
      "componentType": 5126,
      "count": 4314,
      "max": [
        0.9749943614006042,
        0.9925000071525574
      ],
      "min": [
        -0.35478657484054565,
        0.007499999832361937
      ],
      "type": "VEC2"
    },
    {
      "bufferView": 0,
      "componentType": 5125,
      "count": 16332,
      "type": "SCALAR"
    },
    {
      "bufferView": 2,
      "byteOffset": 103536,
      "componentType": 5126,
      "count": 3802,
      "max": [
        191.41079711914063,
        154.59808349609375,
        604.791748046875
      ],
      "min": [
        -187.4698944091797,
        -177.36009216308594,
        -21.438350677490234
      ],
      "type": "VEC3"
    },
    {
      "bufferView": 2,
      "byteOffset": 149160,
      "componentType": 5126,
      "count": 3802,
      "max": [
        0.9999719858169556,
        0.9999974966049194,
        0.9999529123306274
      ],
      "min": [
        -0.9999867081642151,
        -0.9999949336051941,
        -0.9999759793281555
      ],
      "type": "VEC3"
    },
    {
      "bufferView": 1,
      "byteOffset": 34512,
      "componentType": 5126,
      "count": 3802,
      "max": [
        0.9749943614006042,
        0.9925000071525574
      ],
      "min": [
        -0.35478657484054565,
        0.007499999832361937
      ],
      "type": "VEC2"
    },
    {
      "bufferView": 0,
      "byteOffset": 65328,
      "componentType": 5125,
      "count": 16350,
      "type": "SCALAR"
    }
  ],
  "asset": {
    "extras": {
      "author": "zhixson (https://sketchfab.com/zhixson)",
      "license": "SKETCHFAB Standard (https://sketchfab.com/licenses)",
      "source": "https://sketchfab.com/3d-models/forest-book-polycount-mayjune-prop-challenge-71f04e390ff54e5f8d9a51b4e1caab7e",
      "title": "Forest Book - Polycount May/June Prop Challenge"
    },
    "generator": "Sketchfab-12.66.0",
    "version": "2.0"
  },
  "bufferViews": [
    {
      "buffer": 0,
      "byteLength": 130728,
      "name": "floatBufferViews",
      "target": 34963
    },
    {
      "buffer": 0,
      "byteLength": 64928,
      "byteOffset": 130728,
      "byteStride": 8,
      "name": "floatBufferViews",
      "target": 34962
    },
    {
      "buffer": 0,
      "byteLength": 194784,
      "byteOffset": 195656,
      "byteStride": 12,
      "name": "floatBufferViews",
      "target": 34962
    }
  ],
  "buffers": [
    {
      "byteLength": 390440,
      "uri": "scene.bin"
    }
  ],
  "extensionsUsed": [
    "KHR_materials_unlit"
  ],
  "images": [
    {
      "uri": "textures/Forest_Book_baseColor.png"
    },
    {
      "uri": "textures/Forest_Book_emissive.png"
    }
  ],
  "materials": [
    {
      "doubleSided": true,
      "emissiveFactor": [
        0.1382575758,
        0.1382575758,
        0.1382575758
      ],
      "emissiveTexture": {
        "index": 1
      },
      "extensions": {
        "KHR_materials_unlit": {}
      },
      "name": "Forest_Book",
      "pbrMetallicRoughness": {
        "baseColorTexture": {
          "index": 0
        },
        "metallicFactor": 0.0
      }
    },
    {
      "alphaMode": "BLEND",
      "extensions": {
        "KHR_materials_unlit": {}
      },
      "name": "Material_194",
      "pbrMetallicRoughness": {
        "baseColorFactor": [
          0.0,
          0.0,
          0.0,
          0.9376893939
        ],
        "metallicFactor": 0.0
      }
    }
  ],
  "meshes": [
    {
      "name": "Forest_Book_Forest Book_0",
      "primitives": [
        {
          "attributes": {
            "NORMAL": 1,
            "POSITION": 0,
            "TEXCOORD_0": 2
          },
          "indices": 3,
          "material": 0,
          "mode": 4
        }
      ]
    },
    {
      "name": "Forest_Book_Cage_Material #194_0",
      "primitives": [
        {
          "attributes": {
            "NORMAL": 5,
            "POSITION": 4,
            "TEXCOORD_0": 6
          },
          "indices": 7,
          "material": 1,
          "mode": 4
        }
      ]
    }
  ],
  "nodes": [
    {
      "children": [
        1
      ],
      "matrix": [
        1.0,
        0.0,
        0.0,
        0.0,
        0.0,
        2.220446049250313e-16,
        -1.0,
        0.0,
        0.0,
        1.0,
        2.220446049250313e-16,
        0.0,
        0.0,
        0.0,
        0.0,
        1.0
      ],
      "name": "Sketchfab_model"
    },
    {
      "children": [
        2
      ],
      "matrix": [
        1.0,
        0.0,
        0.0,
        0.0,
        0.0,
        0.0,
        1.0,
        0.0,
        0.0,
        -1.0,
        0.0,
        0.0,
        0.0,
        0.0,
        0.0,
        1.0
      ],
      "name": "907b990c9cef4f779ec8e06e1994e2ba.fbx"
    },
    {
      "children": [
        3,
        5
      ],
      "name": "RootNode"
    },
    {
      "children": [
        4
      ],
      "matrix": [
        1.0,
        0.0,
        0.0,
        0.0,
        0.0,
        2.220446049250313e-16,
        -1.0,
        0.0,
        0.0,
        1.0,
        2.220446049250313e-16,
        0.0,
        0.0,
        0.0,
        0.0,
        1.0
      ],
      "name": "Forest_Book"
    },
    {
      "mesh": 0,
      "name": "Forest_Book_Forest Book_0"
    },
    {
      "children": [
        6
      ],
      "matrix": [
        1.0,
        0.0,
        0.0,
        0.0,
        0.0,
        2.220446049250313e-16,
        -1.0,
        0.0,
        0.0,
        1.0,
        2.220446049250313e-16,
        0.0,
        7.782600402832031,
        200.01217651367188,
        11.381034851074219,
        1.0
      ],
      "name": "Forest_Book_Cage"
    },
    {
      "children": [
        7
      ],
      "matrix": [
        1.0,
        0.0,
        -0.0,
        0.0,
        0.0,
        1.0,
        0.0,
        0.0,
        0.0,
        0.0,
        1.0,
        0.0,
        -7.782600402832031,
        11.381034851074219,
        -200.01217651367188,
        1.0
      ],
      "name": "Object_6"
    },
    {
      "mesh": 1,
      "name": "Forest_Book_Cage_Material #194_0"
    }
  ],
  "samplers": [
    {
      "magFilter": 9729,
      "minFilter": 9987,
      "wrapS": 10497,
      "wrapT": 10497
    }
  ],
  "scene": 0,
  "scenes": [
    {
      "name": "Sketchfab_Scene",
      "nodes": [
        0
      ]
    }
  ],
  "textures": [
    {
      "sampler": 0,
      "source": 0
    },
    {
      "sampler": 0,
      "source": 1
    }
  ]
}
